<mxfile host="app.diagrams.net" modified="2021-10-30T02:34:50.596Z" agent="5.0 (Macintosh; Intel Mac OS X 10_15_7) AppleWebKit/537.36 (KHTML, like Gecko) Chrome/95.0.4638.54 Safari/537.36" etag="yqYuvr3jZryRsQV5Zqso" version="15.5.9" type="github">
  <diagram name="Page-1" id="13e1069c-82ec-6db2-03f1-153e76fe0fe0">
    <mxGraphModel dx="974" dy="621" grid="1" gridSize="10" guides="1" tooltips="1" connect="1" arrows="1" fold="1" page="1" pageScale="1" pageWidth="1100" pageHeight="850" background="none" math="0" shadow="0">
      <root>
        <mxCell id="0" />
        <mxCell id="1" parent="0" />
        <mxCell id="u4JBsLyCq-EBkPap4I6q-53" value="tab 出现" style="rounded=0;whiteSpace=wrap;html=1;fillColor=#B2C9AB;strokeColor=#788AA3;fontColor=#46495D;" parent="1" vertex="1">
          <mxGeometry x="240" width="120" height="30" as="geometry" />
        </mxCell>
        <mxCell id="u4JBsLyCq-EBkPap4I6q-54" value="切换 tab" style="rounded=0;whiteSpace=wrap;html=1;fillColor=#B2C9AB;strokeColor=#788AA3;fontColor=#46495D;" parent="1" vertex="1">
          <mxGeometry x="520" width="120" height="30" as="geometry" />
        </mxCell>
        <mxCell id="u4JBsLyCq-EBkPap4I6q-55" value="非冷启动" style="rounded=0;whiteSpace=wrap;html=1;fillColor=#B2C9AB;strokeColor=#788AA3;fontColor=#46495D;" parent="1" vertex="1">
          <mxGeometry x="260" y="80" width="120" height="30" as="geometry" />
        </mxCell>
        <mxCell id="u4JBsLyCq-EBkPap4I6q-56" value="请求数据" style="rounded=0;whiteSpace=wrap;html=1;fillColor=#B2C9AB;strokeColor=#788AA3;fontColor=#46495D;" parent="1" vertex="1">
          <mxGeometry x="260" y="400" width="120" height="30" as="geometry" />
        </mxCell>
        <mxCell id="u4JBsLyCq-EBkPap4I6q-57" value="" style="html=1;verticalAlign=bottom;endArrow=block;rounded=0;sourcePerimeterSpacing=1;entryX=0.5;entryY=0;entryDx=0;entryDy=0;strokeColor=#788AA3;fontColor=#46495D;" parent="1" target="u4JBsLyCq-EBkPap4I6q-64" edge="1">
          <mxGeometry x="-0.2268" y="-1" width="80" relative="1" as="geometry">
            <mxPoint x="239.5" y="30" as="sourcePoint" />
            <mxPoint x="239.5" y="140" as="targetPoint" />
            <mxPoint as="offset" />
          </mxGeometry>
        </mxCell>
        <mxCell id="u4JBsLyCq-EBkPap4I6q-58" value="成功" style="rounded=0;whiteSpace=wrap;html=1;fillColor=#B2C9AB;strokeColor=#788AA3;fontColor=#46495D;" parent="1" vertex="1">
          <mxGeometry x="340" y="480" width="120" height="30" as="geometry" />
        </mxCell>
        <mxCell id="u4JBsLyCq-EBkPap4I6q-59" value="失败" style="rounded=0;whiteSpace=wrap;html=1;fillColor=#B2C9AB;strokeColor=#788AA3;fontColor=#46495D;" parent="1" vertex="1">
          <mxGeometry x="180" y="480" width="120" height="30" as="geometry" />
        </mxCell>
        <mxCell id="u4JBsLyCq-EBkPap4I6q-60" value="检查缓存数据" style="rounded=0;whiteSpace=wrap;html=1;fillColor=#B2C9AB;strokeColor=#788AA3;fontColor=#46495D;" parent="1" vertex="1">
          <mxGeometry x="340" y="160" width="120" height="30" as="geometry" />
        </mxCell>
        <mxCell id="u4JBsLyCq-EBkPap4I6q-61" value="有缓存" style="rounded=0;whiteSpace=wrap;html=1;fillColor=#B2C9AB;strokeColor=#788AA3;fontColor=#46495D;" parent="1" vertex="1">
          <mxGeometry x="420" y="240" width="120" height="30" as="geometry" />
        </mxCell>
        <mxCell id="u4JBsLyCq-EBkPap4I6q-62" value="无缓存" style="rounded=0;whiteSpace=wrap;html=1;fillColor=#B2C9AB;strokeColor=#788AA3;fontColor=#46495D;" parent="1" vertex="1">
          <mxGeometry x="260" y="240" width="120" height="30" as="geometry" />
        </mxCell>
        <mxCell id="u4JBsLyCq-EBkPap4I6q-63" value="不匹配" style="rounded=0;whiteSpace=wrap;html=1;fillColor=#B2C9AB;strokeColor=#788AA3;fontColor=#46495D;" parent="1" vertex="1">
          <mxGeometry x="350" y="720" width="120" height="30" as="geometry" />
        </mxCell>
        <mxCell id="u4JBsLyCq-EBkPap4I6q-64" value="冷启动" style="rounded=0;whiteSpace=wrap;html=1;fillColor=#B2C9AB;strokeColor=#788AA3;fontColor=#46495D;" parent="1" vertex="1">
          <mxGeometry x="100" y="80" width="120" height="30" as="geometry" />
        </mxCell>
        <mxCell id="u4JBsLyCq-EBkPap4I6q-65" value="匹配当前 tab" style="rounded=0;whiteSpace=wrap;html=1;fillColor=#B2C9AB;strokeColor=#788AA3;fontColor=#46495D;" parent="1" vertex="1">
          <mxGeometry x="510" y="720" width="120" height="30" as="geometry" />
        </mxCell>
        <mxCell id="u4JBsLyCq-EBkPap4I6q-66" value="" style="html=1;verticalAlign=bottom;endArrow=block;rounded=0;sourcePerimeterSpacing=1;entryX=0.5;entryY=0;entryDx=0;entryDy=0;strokeColor=#788AA3;fontColor=#46495D;" parent="1" target="u4JBsLyCq-EBkPap4I6q-55" edge="1">
          <mxGeometry x="-0.2268" y="-1" width="80" relative="1" as="geometry">
            <mxPoint x="240" y="30" as="sourcePoint" />
            <mxPoint x="290" y="110" as="targetPoint" />
            <mxPoint as="offset" />
          </mxGeometry>
        </mxCell>
        <mxCell id="u4JBsLyCq-EBkPap4I6q-67" value="" style="html=1;verticalAlign=bottom;endArrow=block;rounded=0;sourcePerimeterSpacing=1;exitX=0.5;exitY=1;exitDx=0;exitDy=0;entryX=0;entryY=0.75;entryDx=0;entryDy=0;strokeColor=#788AA3;fontColor=#46495D;" parent="1" source="u4JBsLyCq-EBkPap4I6q-64" target="u4JBsLyCq-EBkPap4I6q-56" edge="1">
          <mxGeometry x="-0.2268" y="-1" width="80" relative="1" as="geometry">
            <mxPoint x="169.5" y="110" as="sourcePoint" />
            <mxPoint x="260" y="335" as="targetPoint" />
            <mxPoint as="offset" />
          </mxGeometry>
        </mxCell>
        <mxCell id="u4JBsLyCq-EBkPap4I6q-68" value="" style="html=1;verticalAlign=bottom;endArrow=block;rounded=0;sourcePerimeterSpacing=1;strokeColor=#788AA3;fontColor=#46495D;" parent="1" edge="1">
          <mxGeometry x="-0.2268" y="-1" width="80" relative="1" as="geometry">
            <mxPoint x="320" y="110" as="sourcePoint" />
            <mxPoint x="400" y="160" as="targetPoint" />
            <mxPoint as="offset" />
          </mxGeometry>
        </mxCell>
        <mxCell id="u4JBsLyCq-EBkPap4I6q-69" value="" style="html=1;verticalAlign=bottom;endArrow=block;rounded=0;sourcePerimeterSpacing=1;entryX=0.5;entryY=0;entryDx=0;entryDy=0;strokeColor=#788AA3;fontColor=#46495D;" parent="1" target="u4JBsLyCq-EBkPap4I6q-60" edge="1">
          <mxGeometry x="-0.2268" y="-1" width="80" relative="1" as="geometry">
            <mxPoint x="520" y="30" as="sourcePoint" />
            <mxPoint x="630" y="40" as="targetPoint" />
            <mxPoint as="offset" />
          </mxGeometry>
        </mxCell>
        <mxCell id="u4JBsLyCq-EBkPap4I6q-70" value="" style="html=1;verticalAlign=bottom;endArrow=block;rounded=0;sourcePerimeterSpacing=1;entryX=0.5;entryY=0;entryDx=0;entryDy=0;strokeColor=#788AA3;fontColor=#46495D;" parent="1" target="u4JBsLyCq-EBkPap4I6q-62" edge="1">
          <mxGeometry x="-0.2268" y="-1" width="80" relative="1" as="geometry">
            <mxPoint x="399.5" y="190" as="sourcePoint" />
            <mxPoint x="399.5" y="280" as="targetPoint" />
            <mxPoint as="offset" />
          </mxGeometry>
        </mxCell>
        <mxCell id="u4JBsLyCq-EBkPap4I6q-71" value="" style="html=1;verticalAlign=bottom;endArrow=block;rounded=0;sourcePerimeterSpacing=1;entryX=0.5;entryY=0;entryDx=0;entryDy=0;strokeColor=#788AA3;fontColor=#46495D;" parent="1" edge="1">
          <mxGeometry x="-0.2268" y="-1" width="80" relative="1" as="geometry">
            <mxPoint x="480" y="270" as="sourcePoint" />
            <mxPoint x="480" y="560" as="targetPoint" />
            <mxPoint as="offset" />
          </mxGeometry>
        </mxCell>
        <mxCell id="u4JBsLyCq-EBkPap4I6q-72" value="" style="html=1;verticalAlign=bottom;endArrow=block;rounded=0;sourcePerimeterSpacing=1;entryX=0.5;entryY=0;entryDx=0;entryDy=0;strokeColor=#788AA3;fontColor=#46495D;" parent="1" target="u4JBsLyCq-EBkPap4I6q-61" edge="1">
          <mxGeometry x="-0.2268" y="-1" width="80" relative="1" as="geometry">
            <mxPoint x="400" y="190" as="sourcePoint" />
            <mxPoint x="510" y="200" as="targetPoint" />
            <mxPoint as="offset" />
          </mxGeometry>
        </mxCell>
        <mxCell id="u4JBsLyCq-EBkPap4I6q-73" value="" style="html=1;verticalAlign=bottom;endArrow=block;rounded=0;sourcePerimeterSpacing=1;entryX=0.5;entryY=0;entryDx=0;entryDy=0;entryPerimeter=0;strokeColor=#788AA3;fontColor=#46495D;" parent="1" target="u4JBsLyCq-EBkPap4I6q-85" edge="1">
          <mxGeometry x="-0.2268" y="-1" width="80" relative="1" as="geometry">
            <mxPoint x="320" y="270" as="sourcePoint" />
            <mxPoint x="320" y="310" as="targetPoint" />
            <mxPoint as="offset" />
          </mxGeometry>
        </mxCell>
        <mxCell id="u4JBsLyCq-EBkPap4I6q-74" value="" style="html=1;verticalAlign=bottom;endArrow=block;rounded=0;sourcePerimeterSpacing=1;entryX=0.5;entryY=0;entryDx=0;entryDy=0;exitX=0.5;exitY=1;exitDx=0;exitDy=0;strokeColor=#788AA3;fontColor=#46495D;" parent="1" source="u4JBsLyCq-EBkPap4I6q-56" target="u4JBsLyCq-EBkPap4I6q-59" edge="1">
          <mxGeometry x="-0.2268" y="-1" width="80" relative="1" as="geometry">
            <mxPoint x="319.5" y="415" as="sourcePoint" />
            <mxPoint x="319.5" y="505" as="targetPoint" />
            <mxPoint as="offset" />
          </mxGeometry>
        </mxCell>
        <mxCell id="u4JBsLyCq-EBkPap4I6q-75" value="" style="html=1;verticalAlign=bottom;endArrow=block;rounded=0;sourcePerimeterSpacing=1;strokeColor=#788AA3;fontColor=#46495D;" parent="1" edge="1">
          <mxGeometry x="-0.2268" y="-1" width="80" relative="1" as="geometry">
            <mxPoint x="319.5" y="430" as="sourcePoint" />
            <mxPoint x="400" y="480" as="targetPoint" />
            <mxPoint as="offset" />
          </mxGeometry>
        </mxCell>
        <mxCell id="u4JBsLyCq-EBkPap4I6q-76" value="" style="html=1;verticalAlign=bottom;endArrow=block;rounded=0;sourcePerimeterSpacing=1;entryX=0.5;entryY=0;entryDx=0;entryDy=0;strokeColor=#788AA3;fontColor=#46495D;" parent="1" target="u4JBsLyCq-EBkPap4I6q-81" edge="1">
          <mxGeometry x="-0.2268" y="-1" width="80" relative="1" as="geometry">
            <mxPoint x="239.5" y="510" as="sourcePoint" />
            <mxPoint x="250" y="1130" as="targetPoint" />
            <mxPoint as="offset" />
          </mxGeometry>
        </mxCell>
        <mxCell id="fQixEvU4Fw4fzsBP1oap-2" value="&lt;span style=&quot;font-size: 12px ; background-color: rgb(248 , 249 , 250)&quot;&gt;isStart=NO&lt;/span&gt;" style="edgeLabel;html=1;align=center;verticalAlign=middle;resizable=0;points=[];" vertex="1" connectable="0" parent="u4JBsLyCq-EBkPap4I6q-76">
          <mxGeometry x="-0.5416" y="-2" relative="1" as="geometry">
            <mxPoint as="offset" />
          </mxGeometry>
        </mxCell>
        <mxCell id="u4JBsLyCq-EBkPap4I6q-77" value="" style="html=1;verticalAlign=bottom;endArrow=block;rounded=0;sourcePerimeterSpacing=1;entryX=0.5;entryY=0;entryDx=0;entryDy=0;strokeColor=#788AA3;fontColor=#46495D;" parent="1" edge="1">
          <mxGeometry x="-0.2268" y="-1" width="80" relative="1" as="geometry">
            <mxPoint x="399.5" y="510" as="sourcePoint" />
            <mxPoint x="480" y="560" as="targetPoint" />
            <mxPoint as="offset" />
          </mxGeometry>
        </mxCell>
        <mxCell id="fQixEvU4Fw4fzsBP1oap-26" value="&lt;span style=&quot;font-size: 12px ; background-color: rgb(248 , 249 , 250)&quot;&gt;isStart=NO&lt;/span&gt;" style="edgeLabel;html=1;align=center;verticalAlign=middle;resizable=0;points=[];" vertex="1" connectable="0" parent="u4JBsLyCq-EBkPap4I6q-77">
          <mxGeometry x="-0.1356" y="4" relative="1" as="geometry">
            <mxPoint as="offset" />
          </mxGeometry>
        </mxCell>
        <mxCell id="u4JBsLyCq-EBkPap4I6q-78" value="" style="html=1;verticalAlign=bottom;endArrow=block;rounded=0;sourcePerimeterSpacing=1;entryX=0.5;entryY=0;entryDx=0;entryDy=0;exitX=0.5;exitY=1;exitDx=0;exitDy=0;strokeColor=#788AA3;fontColor=#46495D;" parent="1" target="u4JBsLyCq-EBkPap4I6q-63" edge="1">
          <mxGeometry x="-0.2268" y="-1" width="80" relative="1" as="geometry">
            <mxPoint x="490" y="670" as="sourcePoint" />
            <mxPoint x="489.5" y="750" as="targetPoint" />
            <mxPoint as="offset" />
          </mxGeometry>
        </mxCell>
        <mxCell id="u4JBsLyCq-EBkPap4I6q-79" value="" style="html=1;verticalAlign=bottom;endArrow=block;rounded=0;sourcePerimeterSpacing=1;entryX=0.5;entryY=0;entryDx=0;entryDy=0;strokeColor=#788AA3;fontColor=#46495D;" parent="1" target="u4JBsLyCq-EBkPap4I6q-65" edge="1">
          <mxGeometry x="-0.2268" y="-1" width="80" relative="1" as="geometry">
            <mxPoint x="489.5" y="670" as="sourcePoint" />
            <mxPoint x="489.5" y="760" as="targetPoint" />
            <mxPoint as="offset" />
          </mxGeometry>
        </mxCell>
        <mxCell id="u4JBsLyCq-EBkPap4I6q-80" value="" style="html=1;verticalAlign=bottom;endArrow=block;rounded=0;sourcePerimeterSpacing=1;entryX=0.5;entryY=0;entryDx=0;entryDy=0;exitX=0.5;exitY=1;exitDx=0;exitDy=0;strokeColor=#788AA3;fontColor=#46495D;" parent="1" source="u4JBsLyCq-EBkPap4I6q-98" target="u4JBsLyCq-EBkPap4I6q-81" edge="1">
          <mxGeometry x="-0.2268" y="-1" width="80" relative="1" as="geometry">
            <mxPoint x="370" y="860" as="sourcePoint" />
            <mxPoint x="409.5" y="840" as="targetPoint" />
            <mxPoint as="offset" />
          </mxGeometry>
        </mxCell>
        <mxCell id="u4JBsLyCq-EBkPap4I6q-81" value="结束" style="rounded=0;whiteSpace=wrap;html=1;fillColor=#B2C9AB;strokeColor=#788AA3;fontColor=#46495D;" parent="1" vertex="1">
          <mxGeometry x="180" y="1120" width="120" height="30" as="geometry" />
        </mxCell>
        <mxCell id="u4JBsLyCq-EBkPap4I6q-82" value="埋点" style="rounded=0;whiteSpace=wrap;html=1;fillColor=#B2C9AB;strokeColor=#788AA3;fontColor=#46495D;" parent="1" vertex="1">
          <mxGeometry x="580" y="1120" width="120" height="30" as="geometry" />
        </mxCell>
        <mxCell id="u4JBsLyCq-EBkPap4I6q-84" value="" style="edgeStyle=orthogonalEdgeStyle;rounded=0;orthogonalLoop=1;jettySize=auto;html=1;sourcePerimeterSpacing=1;strokeColor=#788AA3;fontColor=#46495D;" parent="1" source="u4JBsLyCq-EBkPap4I6q-85" target="u4JBsLyCq-EBkPap4I6q-56" edge="1">
          <mxGeometry relative="1" as="geometry" />
        </mxCell>
        <mxCell id="u4JBsLyCq-EBkPap4I6q-85" value="检查请求条件" style="rounded=0;whiteSpace=wrap;html=1;fillColor=#B2C9AB;strokeColor=#788AA3;fontColor=#46495D;" parent="1" vertex="1">
          <mxGeometry x="260" y="320" width="120" height="30" as="geometry" />
        </mxCell>
        <mxCell id="u4JBsLyCq-EBkPap4I6q-86" value="" style="html=1;verticalAlign=bottom;endArrow=block;rounded=0;sourcePerimeterSpacing=1;entryX=0.5;entryY=0;entryDx=0;entryDy=0;entryPerimeter=0;strokeColor=#788AA3;fontColor=#46495D;" parent="1" edge="1">
          <mxGeometry x="-0.2268" y="-1" width="80" relative="1" as="geometry">
            <mxPoint x="319.5" y="350" as="sourcePoint" />
            <mxPoint x="319.5" y="400" as="targetPoint" />
            <mxPoint as="offset" />
          </mxGeometry>
        </mxCell>
        <mxCell id="u4JBsLyCq-EBkPap4I6q-87" value="曝光成功" style="rounded=0;whiteSpace=wrap;html=1;fillColor=#B2C9AB;strokeColor=#788AA3;fontColor=#46495D;" parent="1" vertex="1">
          <mxGeometry x="420" y="880" width="120" height="30" as="geometry" />
        </mxCell>
        <mxCell id="u4JBsLyCq-EBkPap4I6q-88" value="曝光失败" style="rounded=0;whiteSpace=wrap;html=1;fillColor=#B2C9AB;strokeColor=#788AA3;fontColor=#46495D;" parent="1" vertex="1">
          <mxGeometry x="580" y="880" width="120" height="30" as="geometry" />
        </mxCell>
        <mxCell id="u4JBsLyCq-EBkPap4I6q-94" value="" style="html=1;verticalAlign=bottom;endArrow=block;rounded=0;entryX=0.5;entryY=0;entryDx=0;entryDy=0;strokeColor=#788AA3;fontColor=#46495D;startArrow=none;" parent="1" target="u4JBsLyCq-EBkPap4I6q-82" edge="1" source="u4JBsLyCq-EBkPap4I6q-96">
          <mxGeometry x="-0.2268" y="-1" width="80" relative="1" as="geometry">
            <mxPoint x="659.5" y="980" as="sourcePoint" />
            <mxPoint x="660" y="1030" as="targetPoint" />
            <mxPoint as="offset" />
          </mxGeometry>
        </mxCell>
        <mxCell id="u4JBsLyCq-EBkPap4I6q-98" value="缓存" style="rounded=0;whiteSpace=wrap;html=1;fillColor=#B2C9AB;strokeColor=#788AA3;fontColor=#46495D;" parent="1" vertex="1">
          <mxGeometry x="350" y="800" width="120" height="30" as="geometry" />
        </mxCell>
        <mxCell id="u4JBsLyCq-EBkPap4I6q-99" value="" style="html=1;verticalAlign=bottom;endArrow=block;rounded=0;sourcePerimeterSpacing=1;strokeColor=#788AA3;fontColor=#46495D;" parent="1" edge="1">
          <mxGeometry x="-0.2268" y="-1" width="80" relative="1" as="geometry">
            <mxPoint x="409.5" y="750" as="sourcePoint" />
            <mxPoint x="410" y="800" as="targetPoint" />
            <mxPoint as="offset" />
          </mxGeometry>
        </mxCell>
        <mxCell id="u4JBsLyCq-EBkPap4I6q-100" value="分发数据" style="rounded=0;whiteSpace=wrap;html=1;fillColor=#B2C9AB;strokeColor=#788AA3;fontColor=#46495D;" parent="1" vertex="1">
          <mxGeometry x="420" y="560" width="120" height="30" as="geometry" />
        </mxCell>
        <mxCell id="u4JBsLyCq-EBkPap4I6q-101" value="检查对应的 tab" style="rounded=0;whiteSpace=wrap;html=1;fillColor=#B2C9AB;strokeColor=#788AA3;fontColor=#46495D;" parent="1" vertex="1">
          <mxGeometry x="420" y="640" width="120" height="30" as="geometry" />
        </mxCell>
        <mxCell id="u4JBsLyCq-EBkPap4I6q-102" value="" style="html=1;verticalAlign=bottom;endArrow=block;rounded=0;sourcePerimeterSpacing=1;entryX=0.5;entryY=0;entryDx=0;entryDy=0;entryPerimeter=0;strokeColor=#788AA3;fontColor=#46495D;" parent="1" edge="1">
          <mxGeometry x="-0.2268" y="-1" width="80" relative="1" as="geometry">
            <mxPoint x="479.5" y="590" as="sourcePoint" />
            <mxPoint x="479.5" y="640" as="targetPoint" />
            <mxPoint as="offset" />
          </mxGeometry>
        </mxCell>
        <mxCell id="u4JBsLyCq-EBkPap4I6q-103" value="&lt;font color=&quot;#ff3333&quot;&gt;注:冷启动的优先&lt;/font&gt;" style="text;html=1;align=center;verticalAlign=middle;resizable=0;points=[];autosize=1;strokeColor=none;fillColor=none;fontColor=#46495D;" parent="1" vertex="1">
          <mxGeometry x="480" y="165" width="100" height="20" as="geometry" />
        </mxCell>
        <mxCell id="fQixEvU4Fw4fzsBP1oap-1" value="isStart=YES" style="text;html=1;align=center;verticalAlign=middle;resizable=0;points=[];autosize=1;strokeColor=none;fillColor=none;" vertex="1" parent="1">
          <mxGeometry x="140" y="210" width="80" height="20" as="geometry" />
        </mxCell>
        <mxCell id="fQixEvU4Fw4fzsBP1oap-3" value="_isStartHasShowing=NO" style="text;html=1;align=center;verticalAlign=middle;resizable=0;points=[];autosize=1;strokeColor=none;fillColor=none;" vertex="1" parent="1">
          <mxGeometry x="155" y="170" width="150" height="20" as="geometry" />
        </mxCell>
        <mxCell id="fQixEvU4Fw4fzsBP1oap-4" value="业务埋点" style="rounded=0;whiteSpace=wrap;html=1;fillColor=#B2C9AB;strokeColor=#788AA3;fontColor=#46495D;" vertex="1" parent="1">
          <mxGeometry x="510" y="800" width="120" height="30" as="geometry" />
        </mxCell>
        <mxCell id="u4JBsLyCq-EBkPap4I6q-96" value="非冷启动" style="rounded=0;whiteSpace=wrap;html=1;fillColor=#B2C9AB;strokeColor=#788AA3;fontColor=#46495D;" parent="1" vertex="1">
          <mxGeometry x="500" y="960" width="120" height="30" as="geometry" />
        </mxCell>
        <mxCell id="fQixEvU4Fw4fzsBP1oap-7" value="" style="html=1;verticalAlign=bottom;endArrow=block;rounded=0;strokeColor=#788AA3;fontColor=#46495D;startArrow=none;entryX=0.5;entryY=0;entryDx=0;entryDy=0;" edge="1" parent="1" target="u4JBsLyCq-EBkPap4I6q-87">
          <mxGeometry x="-0.2268" y="-1" width="80" relative="1" as="geometry">
            <mxPoint x="564.6153846153845" y="830" as="sourcePoint" />
            <mxPoint x="560" y="900" as="targetPoint" />
            <mxPoint as="offset" />
          </mxGeometry>
        </mxCell>
        <mxCell id="fQixEvU4Fw4fzsBP1oap-8" value="" style="html=1;verticalAlign=bottom;endArrow=block;rounded=0;strokeColor=#788AA3;fontColor=#46495D;startArrow=none;entryX=0.5;entryY=0;entryDx=0;entryDy=0;exitX=0.5;exitY=1;exitDx=0;exitDy=0;" edge="1" parent="1" source="u4JBsLyCq-EBkPap4I6q-95" target="u4JBsLyCq-EBkPap4I6q-82">
          <mxGeometry x="-0.2268" y="-1" width="80" relative="1" as="geometry">
            <mxPoint x="522.3053846153846" y="990" as="sourcePoint" />
            <mxPoint x="517.69" y="1060" as="targetPoint" />
            <mxPoint as="offset" />
          </mxGeometry>
        </mxCell>
        <mxCell id="fQixEvU4Fw4fzsBP1oap-12" value="&lt;span style=&quot;background-color: rgb(248 , 249 , 250)&quot;&gt;_isStartHasShowing=YES&lt;/span&gt;" style="edgeLabel;html=1;align=center;verticalAlign=middle;resizable=0;points=[];" vertex="1" connectable="0" parent="fQixEvU4Fw4fzsBP1oap-8">
          <mxGeometry x="-0.2996" y="-2" relative="1" as="geometry">
            <mxPoint x="-27" as="offset" />
          </mxGeometry>
        </mxCell>
        <mxCell id="fQixEvU4Fw4fzsBP1oap-9" value="" style="html=1;verticalAlign=bottom;endArrow=block;rounded=0;strokeColor=#788AA3;fontColor=#46495D;startArrow=none;entryX=0.5;entryY=0;entryDx=0;entryDy=0;" edge="1" parent="1" target="u4JBsLyCq-EBkPap4I6q-88">
          <mxGeometry x="-0.2268" y="-1" width="80" relative="1" as="geometry">
            <mxPoint x="564.6153846153845" y="830" as="sourcePoint" />
            <mxPoint x="560" y="900" as="targetPoint" />
            <mxPoint as="offset" />
          </mxGeometry>
        </mxCell>
        <mxCell id="fQixEvU4Fw4fzsBP1oap-10" value="" style="html=1;verticalAlign=bottom;endArrow=block;rounded=0;strokeColor=#788AA3;fontColor=#46495D;startArrow=none;" edge="1" parent="1" source="u4JBsLyCq-EBkPap4I6q-95">
          <mxGeometry x="-0.2268" y="-1" width="80" relative="1" as="geometry">
            <mxPoint x="482.3053846153846" y="910" as="sourcePoint" />
            <mxPoint x="477.69000000000005" y="980" as="targetPoint" />
            <mxPoint as="offset" />
          </mxGeometry>
        </mxCell>
        <mxCell id="fQixEvU4Fw4fzsBP1oap-11" value="" style="html=1;verticalAlign=bottom;endArrow=block;rounded=0;strokeColor=#788AA3;fontColor=#46495D;startArrow=none;entryX=0.5;entryY=0;entryDx=0;entryDy=0;exitX=0.5;exitY=1;exitDx=0;exitDy=0;" edge="1" parent="1" source="u4JBsLyCq-EBkPap4I6q-87" target="u4JBsLyCq-EBkPap4I6q-95">
          <mxGeometry x="-0.2268" y="-1" width="80" relative="1" as="geometry">
            <mxPoint x="475" y="910" as="sourcePoint" />
            <mxPoint x="470" y="980" as="targetPoint" />
            <mxPoint as="offset" />
          </mxGeometry>
        </mxCell>
        <mxCell id="fQixEvU4Fw4fzsBP1oap-13" value="业务结束回调" style="rounded=0;whiteSpace=wrap;html=1;fillColor=#B2C9AB;strokeColor=#788AA3;fontColor=#46495D;" vertex="1" parent="1">
          <mxGeometry x="800" y="800" width="120" height="30" as="geometry" />
        </mxCell>
        <mxCell id="u4JBsLyCq-EBkPap4I6q-95" value="冷启动" style="rounded=0;whiteSpace=wrap;html=1;fillColor=#B2C9AB;strokeColor=#788AA3;fontColor=#46495D;" parent="1" vertex="1">
          <mxGeometry x="360" y="960" width="120" height="30" as="geometry" />
        </mxCell>
        <mxCell id="fQixEvU4Fw4fzsBP1oap-16" value="" style="html=1;verticalAlign=bottom;endArrow=block;rounded=0;strokeColor=#788AA3;fontColor=#46495D;startArrow=none;entryX=0.5;entryY=0;entryDx=0;entryDy=0;" edge="1" parent="1" target="fQixEvU4Fw4fzsBP1oap-13">
          <mxGeometry x="-0.2268" y="-1" width="80" relative="1" as="geometry">
            <mxPoint x="572.3053846153846" y="750" as="sourcePoint" />
            <mxPoint x="567.69" y="820" as="targetPoint" />
            <mxPoint as="offset" />
          </mxGeometry>
        </mxCell>
        <mxCell id="fQixEvU4Fw4fzsBP1oap-17" value="" style="html=1;verticalAlign=bottom;endArrow=block;rounded=0;strokeColor=#788AA3;fontColor=#46495D;startArrow=none;" edge="1" parent="1">
          <mxGeometry x="-0.2268" y="-1" width="80" relative="1" as="geometry">
            <mxPoint x="572.3053846153846" y="750" as="sourcePoint" />
            <mxPoint x="568" y="800" as="targetPoint" />
            <mxPoint as="offset" />
          </mxGeometry>
        </mxCell>
        <mxCell id="fQixEvU4Fw4fzsBP1oap-21" value="" style="html=1;verticalAlign=bottom;endArrow=block;rounded=0;strokeColor=#788AA3;fontColor=#46495D;startArrow=none;exitX=0.5;exitY=1;exitDx=0;exitDy=0;entryX=0.5;entryY=0;entryDx=0;entryDy=0;" edge="1" parent="1" target="u4JBsLyCq-EBkPap4I6q-82">
          <mxGeometry x="-0.2268" y="-1" width="80" relative="1" as="geometry">
            <mxPoint x="639.5" y="910" as="sourcePoint" />
            <mxPoint x="650" y="1120" as="targetPoint" />
            <mxPoint as="offset" />
          </mxGeometry>
        </mxCell>
        <mxCell id="fQixEvU4Fw4fzsBP1oap-22" value="有剩余数据" style="rounded=0;whiteSpace=wrap;html=1;fillColor=#B2C9AB;strokeColor=#788AA3;fontColor=#46495D;" vertex="1" parent="1">
          <mxGeometry x="880" y="880" width="120" height="30" as="geometry" />
        </mxCell>
        <mxCell id="fQixEvU4Fw4fzsBP1oap-25" value="" style="html=1;verticalAlign=bottom;endArrow=block;rounded=0;strokeColor=#788AA3;fontColor=#46495D;startArrow=none;exitX=0.5;exitY=1;exitDx=0;exitDy=0;" edge="1" parent="1" source="fQixEvU4Fw4fzsBP1oap-22" target="u4JBsLyCq-EBkPap4I6q-100">
          <mxGeometry x="-0.2268" y="-1" width="80" relative="1" as="geometry">
            <mxPoint x="840" y="950" as="sourcePoint" />
            <mxPoint x="820" y="600" as="targetPoint" />
            <mxPoint as="offset" />
            <Array as="points">
              <mxPoint x="940" y="1000" />
              <mxPoint x="1080" y="1000" />
              <mxPoint x="1080" y="575" />
            </Array>
          </mxGeometry>
        </mxCell>
        <mxCell id="fQixEvU4Fw4fzsBP1oap-27" value="" style="html=1;verticalAlign=bottom;endArrow=block;rounded=0;strokeColor=#788AA3;fontColor=#46495D;startArrow=none;entryX=0.5;entryY=1;entryDx=0;entryDy=0;exitX=0.5;exitY=1;exitDx=0;exitDy=0;" edge="1" parent="1" source="fQixEvU4Fw4fzsBP1oap-32" target="u4JBsLyCq-EBkPap4I6q-81">
          <mxGeometry x="-0.2268" y="-1" width="80" relative="1" as="geometry">
            <mxPoint x="899" y="1140" as="sourcePoint" />
            <mxPoint x="899" y="1190" as="targetPoint" />
            <mxPoint as="offset" />
            <Array as="points">
              <mxPoint x="720" y="1200" />
              <mxPoint x="240" y="1200" />
            </Array>
          </mxGeometry>
        </mxCell>
        <mxCell id="fQixEvU4Fw4fzsBP1oap-28" value="" style="html=1;verticalAlign=bottom;endArrow=block;rounded=0;strokeColor=#788AA3;fontColor=#46495D;startArrow=none;entryX=0.5;entryY=0;entryDx=0;entryDy=0;exitX=0.5;exitY=1;exitDx=0;exitDy=0;" edge="1" parent="1" target="u4JBsLyCq-EBkPap4I6q-96">
          <mxGeometry x="-0.2268" y="-1" width="80" relative="1" as="geometry">
            <mxPoint x="480" y="910" as="sourcePoint" />
            <mxPoint x="480" y="960" as="targetPoint" />
            <mxPoint as="offset" />
          </mxGeometry>
        </mxCell>
        <mxCell id="fQixEvU4Fw4fzsBP1oap-29" value="" style="html=1;verticalAlign=bottom;endArrow=block;rounded=0;strokeColor=#788AA3;fontColor=#46495D;startArrow=none;entryX=0.5;entryY=0;entryDx=0;entryDy=0;exitX=0.5;exitY=1;exitDx=0;exitDy=0;" edge="1" parent="1" target="fQixEvU4Fw4fzsBP1oap-33">
          <mxGeometry x="-0.2268" y="-1" width="80" relative="1" as="geometry">
            <mxPoint x="839.5" y="830" as="sourcePoint" />
            <mxPoint x="839.5" y="880" as="targetPoint" />
            <mxPoint as="offset" />
          </mxGeometry>
        </mxCell>
        <mxCell id="fQixEvU4Fw4fzsBP1oap-30" value="" style="html=1;verticalAlign=bottom;endArrow=block;rounded=0;strokeColor=#788AA3;fontColor=#46495D;startArrow=none;exitX=0.5;exitY=1;exitDx=0;exitDy=0;entryX=1;entryY=0.5;entryDx=0;entryDy=0;" edge="1" parent="1" source="fQixEvU4Fw4fzsBP1oap-34" target="u4JBsLyCq-EBkPap4I6q-56">
          <mxGeometry x="-0.2268" y="-1" width="80" relative="1" as="geometry">
            <mxPoint x="849.5" y="1000" as="sourcePoint" />
            <mxPoint x="780" y="650" as="targetPoint" />
            <mxPoint as="offset" />
            <Array as="points">
              <mxPoint x="850" y="1040" />
              <mxPoint x="1040" y="1040" />
              <mxPoint x="1040" y="415" />
            </Array>
          </mxGeometry>
        </mxCell>
        <mxCell id="fQixEvU4Fw4fzsBP1oap-31" value="" style="html=1;verticalAlign=bottom;endArrow=block;rounded=0;strokeColor=#788AA3;fontColor=#46495D;startArrow=none;entryX=0.5;entryY=0;entryDx=0;entryDy=0;exitX=0.5;exitY=1;exitDx=0;exitDy=0;" edge="1" parent="1" source="fQixEvU4Fw4fzsBP1oap-13" target="fQixEvU4Fw4fzsBP1oap-22">
          <mxGeometry x="-0.2268" y="-1" width="80" relative="1" as="geometry">
            <mxPoint x="839.5" y="840" as="sourcePoint" />
            <mxPoint x="839.5" y="890" as="targetPoint" />
            <mxPoint as="offset" />
          </mxGeometry>
        </mxCell>
        <mxCell id="fQixEvU4Fw4fzsBP1oap-32" value="非首页数据" style="rounded=0;whiteSpace=wrap;html=1;fillColor=#B2C9AB;strokeColor=#788AA3;fontColor=#46495D;" vertex="1" parent="1">
          <mxGeometry x="660" y="960" width="120" height="30" as="geometry" />
        </mxCell>
        <mxCell id="fQixEvU4Fw4fzsBP1oap-33" value="无剩余数据" style="rounded=0;whiteSpace=wrap;html=1;fillColor=#B2C9AB;strokeColor=#788AA3;fontColor=#46495D;" vertex="1" parent="1">
          <mxGeometry x="720" y="880" width="120" height="30" as="geometry" />
        </mxCell>
        <mxCell id="fQixEvU4Fw4fzsBP1oap-34" value="是首页的数据回调&lt;br&gt;&amp;amp;首页数据无展示" style="rounded=0;whiteSpace=wrap;html=1;fillColor=#B2C9AB;strokeColor=#788AA3;fontColor=#46495D;" vertex="1" parent="1">
          <mxGeometry x="790" y="960" width="120" height="30" as="geometry" />
        </mxCell>
        <mxCell id="fQixEvU4Fw4fzsBP1oap-36" value="" style="html=1;verticalAlign=bottom;endArrow=block;rounded=0;strokeColor=#788AA3;fontColor=#46495D;startArrow=none;entryX=0.5;entryY=0;entryDx=0;entryDy=0;exitX=0.5;exitY=1;exitDx=0;exitDy=0;" edge="1" parent="1" source="fQixEvU4Fw4fzsBP1oap-33" target="fQixEvU4Fw4fzsBP1oap-34">
          <mxGeometry x="-0.2268" y="-1" width="80" relative="1" as="geometry">
            <mxPoint x="769.5" y="910" as="sourcePoint" />
            <mxPoint x="769.5" y="960" as="targetPoint" />
            <mxPoint as="offset" />
          </mxGeometry>
        </mxCell>
        <mxCell id="fQixEvU4Fw4fzsBP1oap-37" value="" style="html=1;verticalAlign=bottom;endArrow=block;rounded=0;strokeColor=#788AA3;fontColor=#46495D;startArrow=none;entryX=0.5;entryY=0;entryDx=0;entryDy=0;exitX=0.5;exitY=1;exitDx=0;exitDy=0;" edge="1" parent="1" source="fQixEvU4Fw4fzsBP1oap-33" target="fQixEvU4Fw4fzsBP1oap-32">
          <mxGeometry x="-0.2268" y="-1" width="80" relative="1" as="geometry">
            <mxPoint x="769.5" y="910" as="sourcePoint" />
            <mxPoint x="769.5" y="960" as="targetPoint" />
            <mxPoint as="offset" />
          </mxGeometry>
        </mxCell>
      </root>
    </mxGraphModel>
  </diagram>
</mxfile>
